#N canvas 756 4 770 790 10;
#X floatatom 20 140 5 0 0 0 - - -, f 5;
#X text 90 90 Theta hat;
#X obj 190 60 hsl 128 15 1 22.5 0 0 empty empty empty -2 -8 0 10 #fcfcfc
#000000 #000000 0 1;
#X floatatom 190 140 5 0 0 0 - - -, f 5;
#X floatatom 20 210 5 0 0 0 - - -, f 5;
#X obj 20 180 expr 0.5+0.5*tan($f1)/tan($f2);
#X floatatom 220 210 5 0 0 0 - - -, f 5;
#X obj 220 180 expr 0.5-0.5*tan($f1)/tan($f2);
#X obj 430 170 readsf~;
#X obj 290 250 *~;
#X obj 310 250 *~;
#X obj 290 290 dac~;
#X obj 420 90 bng 19 250 50 0 empty empty empty 17 7 0 10 #fcfcfc #000000
#000000;
#X msg 380 130 start;
#X obj 420 290 writesf~ 2;
#X msg 380 220 stop;
#X obj 20 90 / 360;
#X obj 190 90 / 360;
#X obj 20 120 * 6.28319;
#X obj 190 120 * 6.28319;
#X obj 20 20 bng 15 250 50 0 empty empty empty 17 7 0 10 #fcfcfc #000000
#000000;
#X obj 20 60 22.5;
#X msg 450 130 open lydfiler_Positive_Uprise.wav;
#X msg 420 250 open lydfiler_Positive_Uprise+0.wav \, start;
#X connect 0 0 5 0;
#X connect 0 0 7 0;
#X connect 2 0 17 0;
#X connect 3 0 5 1;
#X connect 3 0 7 1;
#X connect 4 0 9 1;
#X connect 5 0 4 0;
#X connect 6 0 10 1;
#X connect 7 0 6 0;
#X connect 8 0 9 0;
#X connect 8 0 10 0;
#X connect 9 0 11 0;
#X connect 9 0 14 0;
#X connect 10 0 11 1;
#X connect 10 0 14 1;
#X connect 12 0 22 0;
#X connect 12 0 23 0;
#X connect 12 0 13 0;
#X connect 13 0 8 0;
#X connect 15 0 14 0;
#X connect 16 0 18 0;
#X connect 17 0 19 0;
#X connect 18 0 0 0;
#X connect 19 0 3 0;
#X connect 20 0 21 0;
#X connect 21 0 16 0;
#X connect 22 0 8 0;
#X connect 23 0 14 0;
